<svg xmlns="http://www.w3.org/2000/svg" viewBox="0 0 480 480" role="img" aria-labelledby="title desc">
<title id="title">Ayodele Benjamin Esan initials avatar</title>
<desc id="desc">A geometric ABE initials mark with energy network nodes.</desc>
<defs>
  <linearGradient id="blob" x1="0" y1="0" x2="1" y2="1">
    <stop offset="0" stop-color="#1f2937"/>
    <stop offset="0.55" stop-color="#334155"/>
    <stop offset="1" stop-color="#0891b2"/>
  </linearGradient>
  <linearGradient id="warm" x1="0" y1="0" x2="1" y2="1">
    <stop offset="0" stop-color="#f97316"/>
    <stop offset="1" stop-color="#f59e0b"/>
  </linearGradient>
  <filter id="shadow" x="-20%" y="-20%" width="140%" height="140%">
    <feDropShadow dx="0" dy="18" stdDeviation="22" flood-color="#020617" flood-opacity="0.30"/>
  </filter>
</defs>
<rect width="480" height="480" fill="transparent"/>
<path d="M127 107 C177 54 250 48 313 78 C391 116 406 224 365 307 C322 393 216 402 137 354 C55 303 50 188 127 107 Z" fill="url(#blob)" filter="url(#shadow)"/>
<circle cx="349" cy="122" r="82" fill="#f97316" opacity="0.18"/>
<circle cx="165" cy="315" r="96" fill="#22d3ee" opacity="0.20"/>
<path d="M126 273 L190 196 L267 237 L349 124" fill="none" stroke="#ffffff" stroke-width="12" stroke-linecap="round" stroke-linejoin="round" opacity="0.62"/>
<circle cx="126" cy="273" r="16" fill="#f97316"/>
<circle cx="190" cy="196" r="16" fill="#ffffff"/>
<circle cx="267" cy="237" r="16" fill="#dbeafe"/>
<circle cx="349" cy="124" r="16" fill="url(#warm)"/>
<text x="238" y="292" text-anchor="middle" font-family="Arial, Helvetica, sans-serif" font-size="122" font-weight="900" fill="#ffffff" letter-spacing="-8">ABE</text>
</svg>