<svg xmlns="http://www.w3.org/2000/svg" viewBox="0 0 1200 760" role="img" aria-labelledby="title desc">
    <title id="title">AI Energy Systems Portfolio</title>
    <desc id="desc">Deep reinforcement learning, microgrid optimization, and analytics engineering for resilient energy systems.</desc>
    <defs>
        <linearGradient id="g" x1="0" y1="0" x2="1" y2="1">
            <stop offset="0" stop-color="#111827"/>
            <stop offset="0.55" stop-color="#334155"/>
            <stop offset="1" stop-color="#0f766e"/>
        </linearGradient>
        <radialGradient id="r" cx="32%" cy="18%" r="75%">
            <stop offset="0" stop-color="#ffffff" stop-opacity="0.20"/>
            <stop offset="1" stop-color="#ffffff" stop-opacity="0"/>
        </radialGradient>
        <filter id="shadow" x="-20%" y="-20%" width="140%" height="140%">
            <feDropShadow dx="0" dy="24" stdDeviation="24" flood-color="#000000" flood-opacity="0.22"/>
        </filter>
    </defs>
    <rect width="1200" height="760" rx="44" fill="url(#g)"/>
    <rect width="1200" height="760" rx="44" fill="url(#r)"/>
    <circle cx="1080" cy="120" r="180" fill="#22d3ee" opacity="0.16"/>
    <circle cx="180" cy="650" r="220" fill="#f59e0b" opacity="0.13"/>
    <g opacity="0.17" stroke="#ffffff" stroke-width="2">
        <path d="M40 155 H1160 M40 275 H1160 M40 395 H1160 M40 515 H1160 M40 635 H1160"/>
        <path d="M160 50 V710 M320 50 V710 M480 50 V710 M640 50 V710 M800 50 V710 M960 50 V710"/>
    </g>
    <rect x="66" y="70" width="650" height="470" rx="36" fill="#ffffff" opacity="0.12" filter="url(#shadow)"/>
    <text x="96" y="135" font-family="Arial, Helvetica, sans-serif" font-size="26" font-weight="800" letter-spacing="4" fill="#22d3ee">PORTFOLIO</text>
    <text x="96" y="210" font-family="Arial, Helvetica, sans-serif" font-size="58" font-weight="800" fill="#ffffff"><tspan x="96" dy="0">AI Energy Systems</tspan><tspan x="96" dy="64">Portfolio</tspan></text>
    <text x="96" y="455" font-family="Arial, Helvetica, sans-serif" font-size="30" font-weight="500" fill="#e5eef7"><tspan x="96" dy="0">Deep reinforcement learning, microgrid</tspan><tspan x="96" dy="40">optimization, and analytics engineering for</tspan></text>
    <rect x="96" y="600" width="230" height="48" rx="24" fill="#f59e0b" opacity="0.95"/>
    <text x="124" y="632" font-family="Arial, Helvetica, sans-serif" font-size="20" font-weight="800" fill="#111827">AI + Energy</text>
    <g><line x1="805" y1="455" x2="910" y2="390" stroke="#22d3ee" stroke-width="3" opacity="0.45"/><line x1="805" y1="455" x2="840" y2="585" stroke="#22d3ee" stroke-width="3" opacity="0.45"/><line x1="910" y1="390" x2="1035" y2="430" stroke="#22d3ee" stroke-width="3" opacity="0.45"/><line x1="910" y1="390" x2="980" y2="560" stroke="#22d3ee" stroke-width="3" opacity="0.45"/><line x1="1035" y1="430" x2="980" y2="560" stroke="#22d3ee" stroke-width="3" opacity="0.45"/><line x1="1035" y1="430" x2="1065" y2="595" stroke="#22d3ee" stroke-width="3" opacity="0.45"/><line x1="980" y1="560" x2="840" y2="585" stroke="#22d3ee" stroke-width="3" opacity="0.45"/><line x1="980" y1="560" x2="1065" y2="595" stroke="#22d3ee" stroke-width="3" opacity="0.45"/><line x1="840" y1="585" x2="1065" y2="595" stroke="#22d3ee" stroke-width="3" opacity="0.45"/><circle cx="805" cy="455" r="18" fill="#0f766e" opacity="0.9"/><circle cx="805" cy="455" r="6" fill="#ffffff" opacity="0.95"/><circle cx="910" cy="390" r="18" fill="#0f766e" opacity="0.9"/><circle cx="910" cy="390" r="6" fill="#ffffff" opacity="0.95"/><circle cx="1035" cy="430" r="18" fill="#0f766e" opacity="0.9"/><circle cx="1035" cy="430" r="6" fill="#ffffff" opacity="0.95"/><circle cx="980" cy="560" r="18" fill="#0f766e" opacity="0.9"/><circle cx="980" cy="560" r="6" fill="#ffffff" opacity="0.95"/><circle cx="840" cy="585" r="18" fill="#0f766e" opacity="0.9"/><circle cx="840" cy="585" r="6" fill="#ffffff" opacity="0.95"/><circle cx="1065" cy="595" r="18" fill="#0f766e" opacity="0.9"/><circle cx="1065" cy="595" r="6" fill="#ffffff" opacity="0.95"/><path d="M905 520 l42 -92 l-6 70 h54 l-93 118 l28 -96 z" fill="#fbbf24" opacity="0.95"/></g>
</svg>