<svg xmlns="http://www.w3.org/2000/svg" viewBox="0 0 1200 760" role="img" aria-labelledby="title desc">
<title id="title">Augmented DRL</title>
<desc id="desc">Research</desc>
<defs>
  <linearGradient id="bg" x1="0" y1="0" x2="1" y2="1">
    <stop offset="0" stop-color="#111827"/>
    <stop offset="0.55" stop-color="#334155"/>
    <stop offset="1" stop-color="#0e7490"/>
  </linearGradient>
  <linearGradient id="accent" x1="0" y1="0" x2="1" y2="1">
    <stop offset="0" stop-color="#22d3ee"/>
    <stop offset="1" stop-color="#f97316"/>
  </linearGradient>
  <filter id="shadow" x="-20%" y="-20%" width="140%" height="140%">
    <feDropShadow dx="0" dy="24" stdDeviation="24" flood-color="#000" flood-opacity="0.20"/>
  </filter>
</defs>
<rect width="1200" height="760" rx="44" fill="url(#bg)"/>
<circle cx="1030" cy="120" r="205" fill="#f97316" opacity="0.13"/>
<circle cx="150" cy="645" r="230" fill="#e0f2fe" opacity="0.12"/>
<g opacity="0.12" stroke="#ffffff" stroke-width="2">
  <path d="M80 120H1120M80 250H1120M80 380H1120M80 510H1120M80 640H1120"/>
  <path d="M165 70V690M340 70V690M515 70V690M690 70V690M865 70V690M1040 70V690"/>
</g>
<rect x="90" y="78" width="1020" height="604" rx="42" fill="#ffffff" opacity="0.10" filter="url(#shadow)"/>
<text x="600" y="145" text-anchor="middle" font-family="Arial, Helvetica, sans-serif" font-size="25" font-weight="900" letter-spacing="5" fill="#22d3ee">RESEARCH</text>
<g>
  <circle cx="360" cy="314" r="62" fill="#fbbf24"/><g stroke="#fbbf24" stroke-width="10" stroke-linecap="round"><path d="M360 208v-48M360 468v-48M254 314h-48M514 314h-48M285 239l-34-34M469 423l-34-34M435 239l34-34M251 423l34-34"/></g>
  <g transform="translate(720 344)"><path d="M0 0v146" stroke="#e0f2fe" stroke-width="12" stroke-linecap="round"/><circle cx="0" cy="0" r="18" fill="#e0f2fe"/><path d="M0 0c-22-73 33-99 118-100C77-38 42-8 0 0Z" fill="#22d3ee"/><path d="M0 0c-48 58-105 30-154-35 73-4 121 6 154 35Z" fill="#22d3ee"/><path d="M0 0c72 16 84 77 52 151-32-65-48-109-52-151Z" fill="#22d3ee"/></g>
  <rect x="470" y="415" width="260" height="92" rx="28" fill="#ffffff" opacity="0.16"/>
  <text x="600" y="474" text-anchor="middle" font-family="Arial" font-size="38" font-weight="900" fill="#fff">DRL AGENT</text>
  <path d="M416 424c82-94 276-108 386-18" fill="none" stroke="#f97316" stroke-width="9" stroke-dasharray="22 18" stroke-linecap="round"/>
</g>
<text x="600" y="615" text-anchor="middle" font-family="Arial, Helvetica, sans-serif" font-size="44" font-weight="900" fill="#ffffff">Augmented DRL</text>
</svg>