<svg xmlns="http://www.w3.org/2000/svg" viewBox="0 0 1200 760" role="img" aria-labelledby="title desc">
<title id="title">Value Iteration</title>
<desc id="desc">Blog Article</desc>
<defs>
  <linearGradient id="bg" x1="0" y1="0" x2="1" y2="1">
    <stop offset="0" stop-color="#111827"/>
    <stop offset="0.55" stop-color="#334155"/>
    <stop offset="1" stop-color="#0e7490"/>
  </linearGradient>
  <linearGradient id="accent" x1="0" y1="0" x2="1" y2="1">
    <stop offset="0" stop-color="#22d3ee"/>
    <stop offset="1" stop-color="#f97316"/>
  </linearGradient>
  <filter id="shadow" x="-20%" y="-20%" width="140%" height="140%">
    <feDropShadow dx="0" dy="24" stdDeviation="24" flood-color="#000" flood-opacity="0.20"/>
  </filter>
</defs>
<rect width="1200" height="760" rx="44" fill="url(#bg)"/>
<circle cx="1030" cy="120" r="205" fill="#f97316" opacity="0.13"/>
<circle cx="150" cy="645" r="230" fill="#e0f2fe" opacity="0.12"/>
<g opacity="0.12" stroke="#ffffff" stroke-width="2">
  <path d="M80 120H1120M80 250H1120M80 380H1120M80 510H1120M80 640H1120"/>
  <path d="M165 70V690M340 70V690M515 70V690M690 70V690M865 70V690M1040 70V690"/>
</g>
<rect x="90" y="78" width="1020" height="604" rx="42" fill="#ffffff" opacity="0.10" filter="url(#shadow)"/>
<text x="600" y="145" text-anchor="middle" font-family="Arial, Helvetica, sans-serif" font-size="25" font-weight="900" letter-spacing="5" fill="#22d3ee">BLOG ARTICLE</text>
<g><rect x="380" y="240" width="82" height="72" rx="10" fill="#e0f2fe" opacity=".18"/><rect x="380" y="318" width="82" height="72" rx="10" fill="#ffffff" opacity=".18"/><rect x="380" y="396" width="82" height="72" rx="10" fill="#e0f2fe" opacity=".18"/><rect x="380" y="474" width="82" height="72" rx="10" fill="#ffffff" opacity=".18"/><rect x="468" y="240" width="82" height="72" rx="10" fill="#ffffff" opacity=".18"/><rect x="468" y="318" width="82" height="72" rx="10" fill="#e0f2fe" opacity=".18"/><rect x="468" y="396" width="82" height="72" rx="10" fill="#ffffff" opacity=".18"/><rect x="468" y="474" width="82" height="72" rx="10" fill="#e0f2fe" opacity=".18"/><rect x="556" y="240" width="82" height="72" rx="10" fill="#e0f2fe" opacity=".18"/><rect x="556" y="318" width="82" height="72" rx="10" fill="#ffffff" opacity=".18"/><rect x="556" y="396" width="82" height="72" rx="10" fill="#e0f2fe" opacity=".18"/><rect x="556" y="474" width="82" height="72" rx="10" fill="#ffffff" opacity=".18"/><rect x="644" y="240" width="82" height="72" rx="10" fill="#ffffff" opacity=".18"/><rect x="644" y="318" width="82" height="72" rx="10" fill="#e0f2fe" opacity=".18"/><rect x="644" y="396" width="82" height="72" rx="10" fill="#ffffff" opacity=".18"/><rect x="644" y="474" width="82" height="72" rx="10" fill="#e0f2fe" opacity=".18"/><rect x="732" y="240" width="82" height="72" rx="10" fill="#e0f2fe" opacity=".18"/><rect x="732" y="318" width="82" height="72" rx="10" fill="#ffffff" opacity=".18"/><rect x="732" y="396" width="82" height="72" rx="10" fill="#e0f2fe" opacity=".18"/><rect x="732" y="474" width="82" height="72" rx="10" fill="#ffffff" opacity=".18"/><path d="M424 276h120M540 276l-22-18M540 276l-22 18M596 428v-92M596 336l-18 22M596 336l18 22M772 510h-120M652 510l22-18M652 510l22 18" stroke="#f97316" stroke-width="9" stroke-linecap="round" stroke-linejoin="round" fill="none"/><rect x="485" y="395" width="230" height="78" rx="24" fill="#0891b2"/><text x="600" y="447" text-anchor="middle" font-family="Arial" font-size="34" font-weight="900" fill="#fff">V(s)</text></g>
<text x="600" y="615" text-anchor="middle" font-family="Arial, Helvetica, sans-serif" font-size="44" font-weight="900" fill="#ffffff">Value Iteration</text>
</svg>