<svg xmlns="http://www.w3.org/2000/svg" viewBox="0 0 1200 760" role="img" aria-labelledby="title desc">
<title id="title">RL for Unit Commitment</title>
<desc id="desc">Blog Article</desc>
<defs>
  <linearGradient id="bg" x1="0" y1="0" x2="1" y2="1">
    <stop offset="0" stop-color="#111827"/>
    <stop offset="0.55" stop-color="#334155"/>
    <stop offset="1" stop-color="#0e7490"/>
  </linearGradient>
  <linearGradient id="accent" x1="0" y1="0" x2="1" y2="1">
    <stop offset="0" stop-color="#22d3ee"/>
    <stop offset="1" stop-color="#f97316"/>
  </linearGradient>
  <filter id="shadow" x="-20%" y="-20%" width="140%" height="140%">
    <feDropShadow dx="0" dy="24" stdDeviation="24" flood-color="#000" flood-opacity="0.20"/>
  </filter>
</defs>
<rect width="1200" height="760" rx="44" fill="url(#bg)"/>
<circle cx="1030" cy="120" r="205" fill="#f97316" opacity="0.13"/>
<circle cx="150" cy="645" r="230" fill="#e0f2fe" opacity="0.12"/>
<g opacity="0.12" stroke="#ffffff" stroke-width="2">
  <path d="M80 120H1120M80 250H1120M80 380H1120M80 510H1120M80 640H1120"/>
  <path d="M165 70V690M340 70V690M515 70V690M690 70V690M865 70V690M1040 70V690"/>
</g>
<rect x="90" y="78" width="1020" height="604" rx="42" fill="#ffffff" opacity="0.10" filter="url(#shadow)"/>
<text x="600" y="145" text-anchor="middle" font-family="Arial, Helvetica, sans-serif" font-size="25" font-weight="900" letter-spacing="5" fill="#22d3ee">BLOG ARTICLE</text>
<g>
  <g transform="translate(320 250)">
    <rect x="0" y="150" width="560" height="60" rx="18" fill="#ffffff" opacity=".16"/><rect x="0" y="70" width="560" height="60" rx="18" fill="#ffffff" opacity=".16"/><rect x="0" y="230" width="560" height="60" rx="18" fill="#ffffff" opacity=".16"/>
    <rect x="40" y="82" width="215" height="36" rx="12" fill="#22d3ee"/><rect x="300" y="82" width="185" height="36" rx="12" fill="#f97316"/>
    <rect x="92" y="162" width="340" height="36" rx="12" fill="#22d3ee"/><rect x="185" y="242" width="280" height="36" rx="12" fill="#f97316"/>
  </g>
  <path d="M285 540h635" stroke="#e0f2fe" stroke-width="6" stroke-linecap="round"/><text x="600" y="224" text-anchor="middle" font-family="Arial" font-size="40" font-weight="900" fill="#fff">Unit Commitment Schedule</text>
</g>
<text x="600" y="615" text-anchor="middle" font-family="Arial, Helvetica, sans-serif" font-size="44" font-weight="900" fill="#ffffff">RL for Unit Commitment</text>
</svg>