<svg xmlns="http://www.w3.org/2000/svg" viewBox="0 0 1200 760" role="img" aria-labelledby="title desc">
<title id="title">Hourly PDF Modeling</title>
<desc id="desc">Research</desc>
<defs>
  <linearGradient id="bg" x1="0" y1="0" x2="1" y2="1">
    <stop offset="0" stop-color="#111827"/>
    <stop offset="0.55" stop-color="#334155"/>
    <stop offset="1" stop-color="#0e7490"/>
  </linearGradient>
  <linearGradient id="accent" x1="0" y1="0" x2="1" y2="1">
    <stop offset="0" stop-color="#22d3ee"/>
    <stop offset="1" stop-color="#f97316"/>
  </linearGradient>
  <filter id="shadow" x="-20%" y="-20%" width="140%" height="140%">
    <feDropShadow dx="0" dy="24" stdDeviation="24" flood-color="#000" flood-opacity="0.20"/>
  </filter>
</defs>
<rect width="1200" height="760" rx="44" fill="url(#bg)"/>
<circle cx="1030" cy="120" r="205" fill="#f97316" opacity="0.13"/>
<circle cx="150" cy="645" r="230" fill="#e0f2fe" opacity="0.12"/>
<g opacity="0.12" stroke="#ffffff" stroke-width="2">
  <path d="M80 120H1120M80 250H1120M80 380H1120M80 510H1120M80 640H1120"/>
  <path d="M165 70V690M340 70V690M515 70V690M690 70V690M865 70V690M1040 70V690"/>
</g>
<rect x="90" y="78" width="1020" height="604" rx="42" fill="#ffffff" opacity="0.10" filter="url(#shadow)"/>
<text x="600" y="145" text-anchor="middle" font-family="Arial, Helvetica, sans-serif" font-size="25" font-weight="900" letter-spacing="5" fill="#22d3ee">RESEARCH</text>
<g>
  <g transform="translate(330 260)">
    <rect x="0" y="210" width="48" height="110" rx="12" fill="#22d3ee" opacity=".65"/><rect x="70" y="160" width="48" height="160" rx="12" fill="#22d3ee" opacity=".75"/><rect x="140" y="105" width="48" height="215" rx="12" fill="#22d3ee" opacity=".85"/><rect x="210" y="55" width="48" height="265" rx="12" fill="#22d3ee"/><rect x="280" y="120" width="48" height="200" rx="12" fill="#22d3ee" opacity=".82"/><rect x="350" y="192" width="48" height="128" rx="12" fill="#22d3ee" opacity=".68"/>
  </g>
  <path d="M278 548c78-196 176-220 288-110 112 109 221 126 353 10" fill="none" stroke="#f97316" stroke-width="12" stroke-linecap="round"/>
  <rect x="410" y="216" width="380" height="82" rx="24" fill="#ffffff" opacity="0.14"/>
  <text x="600" y="269" text-anchor="middle" font-family="Arial" font-size="38" font-weight="900" fill="#fff">HOURLY PDFs</text>
</g>
<text x="600" y="615" text-anchor="middle" font-family="Arial, Helvetica, sans-serif" font-size="44" font-weight="900" fill="#ffffff">Hourly PDF Modeling</text>
</svg>