<svg xmlns="http://www.w3.org/2000/svg" viewBox="0 0 1200 760" role="img" aria-labelledby="title desc">
<title id="title">Lean MA-DRL</title>
<desc id="desc">Research</desc>
<defs>
  <linearGradient id="bg" x1="0" y1="0" x2="1" y2="1">
    <stop offset="0" stop-color="#111827"/>
    <stop offset="0.55" stop-color="#334155"/>
    <stop offset="1" stop-color="#0e7490"/>
  </linearGradient>
  <linearGradient id="accent" x1="0" y1="0" x2="1" y2="1">
    <stop offset="0" stop-color="#22d3ee"/>
    <stop offset="1" stop-color="#f97316"/>
  </linearGradient>
  <filter id="shadow" x="-20%" y="-20%" width="140%" height="140%">
    <feDropShadow dx="0" dy="24" stdDeviation="24" flood-color="#000" flood-opacity="0.20"/>
  </filter>
</defs>
<rect width="1200" height="760" rx="44" fill="url(#bg)"/>
<circle cx="1030" cy="120" r="205" fill="#f97316" opacity="0.13"/>
<circle cx="150" cy="645" r="230" fill="#e0f2fe" opacity="0.12"/>
<g opacity="0.12" stroke="#ffffff" stroke-width="2">
  <path d="M80 120H1120M80 250H1120M80 380H1120M80 510H1120M80 640H1120"/>
  <path d="M165 70V690M340 70V690M515 70V690M690 70V690M865 70V690M1040 70V690"/>
</g>
<rect x="90" y="78" width="1020" height="604" rx="42" fill="#ffffff" opacity="0.10" filter="url(#shadow)"/>
<text x="600" y="145" text-anchor="middle" font-family="Arial, Helvetica, sans-serif" font-size="25" font-weight="900" letter-spacing="5" fill="#22d3ee">RESEARCH</text>
<g transform="translate(0,0)">
  <rect x="410" y="230" width="380" height="132" rx="28" fill="#ffffff" opacity="0.14"/>
  <text x="600" y="314" text-anchor="middle" font-family="Arial, Helvetica, sans-serif" font-size="52" font-weight="900" fill="#ffffff">LEAN MA-DRL</text>
  <g stroke="#22d3ee" stroke-width="7" stroke-linecap="round" opacity="0.78">
    <path d="M344 468L468 414L600 472L742 402L856 468"/>
    <path d="M468 414L508 515M600 472L580 385M742 402L785 526"/>
  </g>
  <g>
    <circle cx="344" cy="468" r="28" fill="url(#accent)"/><circle cx="468" cy="414" r="28" fill="url(#accent)"/>
    <circle cx="600" cy="472" r="28" fill="url(#accent)"/><circle cx="742" cy="402" r="28" fill="url(#accent)"/>
    <circle cx="856" cy="468" r="28" fill="url(#accent)"/><circle cx="508" cy="515" r="23" fill="#e0f2fe"/><circle cx="580" cy="385" r="23" fill="#e0f2fe"/><circle cx="785" cy="526" r="23" fill="#e0f2fe"/>
    <circle cx="344" cy="468" r="8" fill="#111827"/><circle cx="468" cy="414" r="8" fill="#111827"/><circle cx="600" cy="472" r="8" fill="#111827"/><circle cx="742" cy="402" r="8" fill="#111827"/><circle cx="856" cy="468" r="8" fill="#111827"/>
  </g>
</g>
<text x="600" y="615" text-anchor="middle" font-family="Arial, Helvetica, sans-serif" font-size="44" font-weight="900" fill="#ffffff">Lean MA-DRL</text>
</svg>