<svg xmlns="http://www.w3.org/2000/svg" viewBox="0 0 1200 760" role="img" aria-labelledby="title desc">
<title id="title">30-Bus Network AI</title>
<desc id="desc">GitHub Project</desc>
<defs>
  <linearGradient id="bg" x1="0" y1="0" x2="1" y2="1">
    <stop offset="0" stop-color="#111827"/>
    <stop offset="0.55" stop-color="#334155"/>
    <stop offset="1" stop-color="#0e7490"/>
  </linearGradient>
  <linearGradient id="accent" x1="0" y1="0" x2="1" y2="1">
    <stop offset="0" stop-color="#22d3ee"/>
    <stop offset="1" stop-color="#f97316"/>
  </linearGradient>
  <filter id="shadow" x="-20%" y="-20%" width="140%" height="140%">
    <feDropShadow dx="0" dy="24" stdDeviation="24" flood-color="#000" flood-opacity="0.20"/>
  </filter>
</defs>
<rect width="1200" height="760" rx="44" fill="url(#bg)"/>
<circle cx="1030" cy="120" r="205" fill="#f97316" opacity="0.13"/>
<circle cx="150" cy="645" r="230" fill="#e0f2fe" opacity="0.12"/>
<g opacity="0.12" stroke="#ffffff" stroke-width="2">
  <path d="M80 120H1120M80 250H1120M80 380H1120M80 510H1120M80 640H1120"/>
  <path d="M165 70V690M340 70V690M515 70V690M690 70V690M865 70V690M1040 70V690"/>
</g>
<rect x="90" y="78" width="1020" height="604" rx="42" fill="#ffffff" opacity="0.10" filter="url(#shadow)"/>
<text x="600" y="145" text-anchor="middle" font-family="Arial, Helvetica, sans-serif" font-size="25" font-weight="900" letter-spacing="5" fill="#22d3ee">GITHUB PROJECT</text>
<g><path d="M378 285L493 232" stroke="#22d3ee" stroke-width="7" opacity=".70" stroke-linecap="round"/><path d="M493 232L620 268" stroke="#22d3ee" stroke-width="7" opacity=".70" stroke-linecap="round"/><path d="M620 268L736 224" stroke="#22d3ee" stroke-width="7" opacity=".70" stroke-linecap="round"/><path d="M736 224L846 320" stroke="#22d3ee" stroke-width="7" opacity=".70" stroke-linecap="round"/><path d="M846 320L782 460" stroke="#22d3ee" stroke-width="7" opacity=".70" stroke-linecap="round"/><path d="M782 460L642 510" stroke="#22d3ee" stroke-width="7" opacity=".70" stroke-linecap="round"/><path d="M642 510L502 446" stroke="#22d3ee" stroke-width="7" opacity=".70" stroke-linecap="round"/><path d="M502 446L365 470" stroke="#22d3ee" stroke-width="7" opacity=".70" stroke-linecap="round"/><path d="M365 470L378 285" stroke="#22d3ee" stroke-width="7" opacity=".70" stroke-linecap="round"/><path d="M620 268L642 510" stroke="#22d3ee" stroke-width="7" opacity=".70" stroke-linecap="round"/><path d="M493 232L502 446" stroke="#22d3ee" stroke-width="7" opacity=".70" stroke-linecap="round"/><path d="M378 285L620 268" stroke="#22d3ee" stroke-width="7" opacity=".70" stroke-linecap="round"/><path d="M846 320L642 510" stroke="#22d3ee" stroke-width="7" opacity=".70" stroke-linecap="round"/><circle cx="378" cy="285" r="26" fill="url(#accent)"/><text x="378" y="293" text-anchor="middle" font-family="Arial" font-size="20" font-weight="900" fill="#111827">1</text><circle cx="493" cy="232" r="26" fill="url(#accent)"/><text x="493" y="240" text-anchor="middle" font-family="Arial" font-size="20" font-weight="900" fill="#111827">2</text><circle cx="620" cy="268" r="26" fill="url(#accent)"/><text x="620" y="276" text-anchor="middle" font-family="Arial" font-size="20" font-weight="900" fill="#111827">3</text><circle cx="736" cy="224" r="26" fill="url(#accent)"/><text x="736" y="232" text-anchor="middle" font-family="Arial" font-size="20" font-weight="900" fill="#111827">4</text><circle cx="846" cy="320" r="26" fill="url(#accent)"/><text x="846" y="328" text-anchor="middle" font-family="Arial" font-size="20" font-weight="900" fill="#111827">5</text><circle cx="782" cy="460" r="26" fill="url(#accent)"/><text x="782" y="468" text-anchor="middle" font-family="Arial" font-size="20" font-weight="900" fill="#111827">6</text><circle cx="642" cy="510" r="26" fill="url(#accent)"/><text x="642" y="518" text-anchor="middle" font-family="Arial" font-size="20" font-weight="900" fill="#111827">7</text><circle cx="502" cy="446" r="26" fill="url(#accent)"/><text x="502" y="454" text-anchor="middle" font-family="Arial" font-size="20" font-weight="900" fill="#111827">8</text><circle cx="365" cy="470" r="26" fill="url(#accent)"/><text x="365" y="478" text-anchor="middle" font-family="Arial" font-size="20" font-weight="900" fill="#111827">9</text><rect x="463" y="342" width="274" height="82" rx="28" fill="#ffffff" opacity=".15"/><text x="600" y="396" text-anchor="middle" font-family="Arial" font-size="34" font-weight="900" fill="#fff">30 BUS MA-DRL</text></g>
<text x="600" y="615" text-anchor="middle" font-family="Arial, Helvetica, sans-serif" font-size="44" font-weight="900" fill="#ffffff">30-Bus Network AI</text>
</svg>