<svg xmlns="http://www.w3.org/2000/svg" viewBox="0 0 1200 760" role="img" aria-labelledby="title desc">
<title id="title">DRL Microgrid Code</title>
<desc id="desc">GitHub Project</desc>
<defs>
  <linearGradient id="bg" x1="0" y1="0" x2="1" y2="1">
    <stop offset="0" stop-color="#111827"/>
    <stop offset="0.55" stop-color="#334155"/>
    <stop offset="1" stop-color="#0e7490"/>
  </linearGradient>
  <linearGradient id="accent" x1="0" y1="0" x2="1" y2="1">
    <stop offset="0" stop-color="#22d3ee"/>
    <stop offset="1" stop-color="#f97316"/>
  </linearGradient>
  <filter id="shadow" x="-20%" y="-20%" width="140%" height="140%">
    <feDropShadow dx="0" dy="24" stdDeviation="24" flood-color="#000" flood-opacity="0.20"/>
  </filter>
</defs>
<rect width="1200" height="760" rx="44" fill="url(#bg)"/>
<circle cx="1030" cy="120" r="205" fill="#f97316" opacity="0.13"/>
<circle cx="150" cy="645" r="230" fill="#e0f2fe" opacity="0.12"/>
<g opacity="0.12" stroke="#ffffff" stroke-width="2">
  <path d="M80 120H1120M80 250H1120M80 380H1120M80 510H1120M80 640H1120"/>
  <path d="M165 70V690M340 70V690M515 70V690M690 70V690M865 70V690M1040 70V690"/>
</g>
<rect x="90" y="78" width="1020" height="604" rx="42" fill="#ffffff" opacity="0.10" filter="url(#shadow)"/>
<text x="600" y="145" text-anchor="middle" font-family="Arial, Helvetica, sans-serif" font-size="25" font-weight="900" letter-spacing="5" fill="#22d3ee">GITHUB PROJECT</text>
<g>
  <circle cx="600" cy="382" r="178" fill="#ffffff" opacity=".08"/>
  <path d="M521 265c76-52 181-28 226 56" fill="none" stroke="#e0f2fe" stroke-width="10" stroke-linecap="round"/><path d="M770 409c-17 91-99 158-196 151" fill="none" stroke="#e0f2fe" stroke-width="10" stroke-linecap="round"/><path d="M450 480c-66-66-72-170-16-242" fill="none" stroke="#e0f2fe" stroke-width="10" stroke-linecap="round"/>
  <rect x="470" y="220" width="140" height="72" rx="18" fill="#0891b2"/><rect x="650" y="332" width="140" height="72" rx="18" fill="#f97316"/><rect x="430" y="468" width="160" height="72" rx="18" fill="#f59e0b"/>
  <text x="540" y="265" text-anchor="middle" font-family="Arial" font-size="24" font-weight="900" fill="#fff">State</text><text x="720" y="377" text-anchor="middle" font-family="Arial" font-size="24" font-weight="900" fill="#fff">Action</text><text x="510" y="513" text-anchor="middle" font-family="Arial" font-size="24" font-weight="900" fill="#111827">Reward</text>
</g>
<text x="600" y="615" text-anchor="middle" font-family="Arial, Helvetica, sans-serif" font-size="44" font-weight="900" fill="#ffffff">DRL Microgrid Code</text>
</svg>