<svg xmlns="http://www.w3.org/2000/svg" viewBox="0 0 64 64" role="img" aria-labelledby="t"><title id="t">Google Scholar</title><rect width="64" height="64" rx="14" fill="#4285F4"/><circle cx="32" cy="35" r="15" fill="#fff" opacity=".98"/><path d="M8 24 32 12l24 12-24 12L8 24Z" fill="#D2E3FC"/><path d="M32 24 56 24v9" fill="none" stroke="#D2E3FC" stroke-width="4" stroke-linecap="round"/><path d="M39.5 35.2c0 5-3.5 8.2-8.4 8.2-5.2 0-9.4-4.2-9.4-9.4s4.2-9.4 9.4-9.4c2.5 0 4.7.9 6.4 2.5l-2.6 2.5c-1-.9-2.3-1.4-3.8-1.4-3.2 0-5.7 2.6-5.7 5.8s2.5 5.8 5.7 5.8c2.7 0 4.5-1.3 5-3.4h-5v-3.4h8.2c.1.6.2 1.2.2 1.7Z" fill="#4285F4"/></svg>