<svg xmlns="http://www.w3.org/2000/svg" viewBox="0 0 64 64" role="img" aria-labelledby="t"><title id="t">GitHub</title><rect width="64" height="64" rx="14" fill="#181717"/><path fill="#fff" d="M32 12.2c-11.2 0-20.2 9.1-20.2 20.3 0 8.9 5.8 16.5 13.8 19.2 1 .2 1.4-.4 1.4-1v-3.6c-5.6 1.2-6.8-2.4-6.8-2.4-.9-2.4-2.3-3-2.3-3-1.9-1.3.1-1.3.1-1.3 2.1.1 3.2 2.2 3.2 2.2 1.9 3.2 4.9 2.3 6.1 1.8.2-1.4.7-2.3 1.3-2.8-4.5-.5-9.2-2.2-9.2-10 0-2.2.8-4 2.1-5.5-.2-.5-.9-2.6.2-5.4 0 0 1.7-.5 5.6 2.1 1.6-.4 3.3-.7 5-.7s3.4.2 5 .7c3.9-2.6 5.6-2.1 5.6-2.1 1.1 2.8.4 4.9.2 5.4 1.3 1.4 2.1 3.2 2.1 5.5 0 7.8-4.7 9.5-9.2 10 .8.7 1.4 2 1.4 4.1v6c0 .6.4 1.2 1.4 1 8-2.7 13.8-10.2 13.8-19.2 0-11.2-9-20.3-20.2-20.3Z"/></svg>