<svg xmlns="http://www.w3.org/2000/svg" viewBox="0 0 64 64" role="img" aria-labelledby="t d">
<title id="t">Scopus</title><desc id="d">Scopus icon based on the Academicons Scopus glyph.</desc>
<rect width="64" height="64" rx="14" fill="#F36C21"/>
<g transform="translate(0 56) scale(.125 -.125)"><path fill="#fff" d="M64 384H448V0H64ZM181 284Q158 284 144.0 270.5Q130 257 130 237Q130 232 131.0 227.5Q132 223 133.5 220.0Q135 217 138.5 213.0Q142 209 143.5 207.0Q145 205 151.0 201.0Q157 197 158.0 196.0Q159 195 166.0 191.0Q173 187 174 186Q176 185 180.0 183.0Q184 181 186.0 179.5Q188 178 191.0 176.0Q194 174 196.0 172.5Q198 171 200.0 169.0Q202 167 203.5 164.5Q205 162 205.5 159.0Q206 156 206 153Q206 141 196.5 133.0Q187 125 174 125Q152 125 132 137L129 116Q149 107 175 107Q197 107 213.0 120.0Q229 133 229 156Q229 167 222.5 176.0Q216 185 209.5 189.5Q203 194 190 202Q188 203 186 204Q184 205 178.5 208.5Q173 212 170.5 213.5Q168 215 164.0 218.0Q160 221 158.0 223.5Q156 226 154.5 230.0Q153 234 153 239Q153 250 160.5 258.5Q168 267 182 267Q206 267 225 255L227 276Q207 284 181 284ZM343 284Q305 284 279.5 258.5Q254 233 254 195Q254 155 281.0 131.5Q308 108 342 108Q375 108 394 118L393 137Q371 125 344 125Q325 125 310.0 134.5Q295 144 286.5 160.5Q278 177 278 197Q278 228 296.0 247.5Q314 267 340 267Q371 267 393 255L394 274Q374 284 343 284Z"/></g>
</svg>