<svg xmlns="http://www.w3.org/2000/svg" viewBox="0 0 64 64" role="img" aria-labelledby="t d">
<title id="t">Web of Science</title><desc id="d">Clarivate Web of Science profile icon.</desc>
<rect width="64" height="64" rx="14" fill="#ffffff"/>
<path d="M16 18C10 26 10 38 16 46L24 42C20 36 20 28 24 22Z" fill="#111111"/>
<path d="M25 15C36 11 48 16 54 25L45 31C40 25 32 22 24 24Z" fill="#5E35B1"/>
<path d="M24 40C32 43 40 40 45 33L54 39C47 50 34 54 22 47Z" fill="#16A34A"/>
<path d="M26 25C31 23 38 25 43 31C38 38 31 41 25 38C22 34 22 29 26 25Z" fill="#ffffff"/>
<text x="32" y="55" text-anchor="middle" font-family="Arial, Helvetica, sans-serif" font-size="10" font-weight="900" fill="#111827">WoS</text>
</svg>